<svg width="480" height="480" viewBox="0 0 480 480" fill="none" xmlns="http://www.w3.org/2000/svg">
<g clip-path="url(#clip0_189_62)">
<mask id="mask0_189_62" style="mask-type:alpha" maskUnits="userSpaceOnUse" x="0" y="0" width="481" height="480">
<path d="M328.961 8.00012C335.956 7.98841 342.884 9.36078 349.347 12.0382C355.81 14.7156 361.679 18.6451 366.616 23.6004C371.554 28.5557 375.462 34.4389 378.116 40.9112C380.77 47.3834 382.117 54.3168 382.08 61.3119C382.113 68.3167 380.759 75.2587 378.097 81.7379C375.435 88.2171 371.517 94.1055 366.568 99.0638L323.289 142.472C302.845 163.006 275.357 174.996 246.399 176.01C217.441 177.023 189.182 166.983 167.353 147.928L291.353 23.5521C296.277 18.5975 302.136 14.6711 308.591 12.0012C315.046 9.33139 321.967 7.97133 328.953 8.00012M328.953 0.000144563C320.917 -0.0173636 312.957 1.55561 305.531 4.62842C298.106 7.70123 291.362 12.2131 285.689 17.9041L155.865 148.12C167.213 159.517 180.7 168.562 195.552 174.733C210.405 180.904 226.33 184.081 242.413 184.081C258.496 184.081 274.421 180.904 289.274 174.733C304.126 168.562 317.613 159.517 328.961 148.12L372.232 104.72C383.668 93.1667 390.083 77.5677 390.083 61.3119C390.083 45.0562 383.668 29.4571 372.232 17.9041V17.9041C366.557 12.2132 359.812 7.7015 352.385 4.62873C344.959 1.55596 336.998 -0.017101 328.961 0.000144563H328.953Z" fill="#BFCAE2"/>
<path d="M332.537 166.079L456.496 290.399C461.543 295.317 465.564 301.187 468.327 307.669C471.09 314.151 472.54 321.117 472.593 328.164C472.646 335.21 471.301 342.197 468.635 348.72C465.97 355.243 462.037 361.173 457.065 366.166C452.092 371.159 446.179 375.116 439.667 377.808C433.155 380.501 426.174 381.875 419.127 381.851C412.081 381.827 405.109 380.406 398.615 377.67C392.122 374.934 386.235 370.937 381.296 365.911L338.009 322.527C317.523 301.953 305.574 274.394 304.559 245.377C303.544 216.361 313.538 188.035 332.537 166.079M332.337 154.552C284.545 202.495 284.545 280.231 332.337 328.151L375.616 371.551C387.099 383.016 402.662 389.456 418.888 389.456C435.115 389.456 450.678 383.016 462.16 371.551C473.595 359.999 480.01 344.401 480.01 328.147C480.01 311.892 473.595 296.295 462.16 284.743L332.337 154.552V154.552Z" fill="#BFCAE2"/>
<path d="M239.073 303.919C266.687 303.842 293.377 313.853 314.129 332.071L190.129 456.446C180.079 466.24 166.572 471.673 152.54 471.568C138.508 471.463 125.084 465.827 115.182 455.884C105.28 445.941 99.6996 432.494 99.6524 418.461C99.6052 404.429 105.095 390.944 114.93 380.935L158.201 337.527C168.784 326.847 181.384 318.377 195.269 312.609C209.153 306.84 224.046 303.889 239.081 303.927M239.081 295.927C222.993 295.915 207.062 299.089 192.208 305.268C177.353 311.447 163.871 320.508 152.538 331.927L109.258 375.279C97.822 386.832 91.4072 402.431 91.4072 418.686C91.4072 434.942 97.822 450.541 109.258 462.094V462.094C120.74 473.56 136.303 480 152.53 480C168.756 480 184.319 473.56 195.801 462.094L325.609 331.879C314.276 320.46 300.793 311.399 285.939 305.22C271.085 299.041 255.153 295.866 239.065 295.879L239.081 295.927Z" fill="#BFCAE2"/>
<path d="M61.1296 98.0477C68.1148 98.0189 75.036 99.379 81.4909 102.049C87.9457 104.719 93.8055 108.645 98.7295 113.6L142.001 157.008C162.487 177.582 174.436 205.141 175.451 234.157C176.466 263.173 166.472 291.5 147.473 313.455L23.5217 189.111C16.053 181.664 10.961 172.169 8.89005 161.828C6.81909 151.486 7.86221 140.762 11.8874 131.013C15.9127 121.265 22.7391 112.929 31.503 107.061C40.2669 101.193 50.5745 98.0561 61.1216 98.0477M61.1216 90.0477C53.0845 90.0305 45.1234 91.6036 37.6968 94.6763C30.2703 97.7491 23.5251 102.261 17.8497 107.952C6.41453 119.503 0 135.101 0 151.356C0 167.61 6.41453 183.208 17.8497 194.759L147.681 324.983C195.473 277.039 195.473 199.303 147.681 151.384L104.401 107.976C98.7289 102.279 91.9847 97.7626 84.5579 94.6856C77.1311 91.6086 69.1686 90.0323 61.1296 90.0477H61.1216Z" fill="#BFCAE2"/>
</mask>
<g mask="url(#mask0_189_62)">
<rect width="480" height="480" fill="#BFCAE2"/>
</g>
</g>
<defs>
<clipPath id="clip0_189_62">
<rect width="480" height="480" fill="white"/>
</clipPath>
</defs>
</svg>
