<svg width="600" height="600" viewBox="0 0 600 600" fill="none" xmlns="http://www.w3.org/2000/svg">
<path d="M475.739 10.0001C498.338 9.99973 520.43 16.7011 539.221 29.2568C558.012 41.8124 572.657 59.6584 581.305 80.5377C589.952 101.417 592.214 124.392 587.804 146.557C583.394 168.722 572.51 189.081 556.529 205.06L205.059 556.53C194.449 567.14 181.853 575.557 167.99 581.299C154.127 587.041 139.269 589.997 124.264 589.997C109.259 589.997 94.4009 587.041 80.538 581.299C66.6752 575.557 54.0791 567.14 43.469 556.53C32.8588 545.92 24.4424 533.324 18.7002 519.461C12.958 505.598 10.0026 490.74 10.0026 475.735C10.0026 460.73 12.958 445.872 18.7002 432.009C24.4424 418.146 32.8588 405.55 43.469 394.94L394.939 43.4701C405.525 32.8253 418.117 24.386 431.986 18.6408C445.855 12.8957 460.727 9.95875 475.739 10.0001M475.739 0.00012205C459.416 -0.0227932 443.25 3.18131 428.17 9.42816C413.09 15.675 399.394 24.8414 387.869 36.4001L36.399 387.87C24.8592 399.408 15.7052 413.106 9.45986 428.182C3.21448 443.258 0 459.417 0 475.735C0 492.054 3.21448 508.212 9.45986 523.288C15.7052 538.364 24.8592 552.062 36.399 563.6V563.6C47.9369 575.14 61.635 584.294 76.711 590.539C91.787 596.785 107.946 599.999 124.264 599.999C140.582 599.999 156.741 596.785 171.817 590.539C186.893 584.294 200.591 575.14 212.129 563.6L563.599 212.13C575.139 200.592 584.293 186.894 590.538 171.818C596.783 156.742 599.998 140.584 599.998 124.265C599.998 107.947 596.783 91.7881 590.538 76.7121C584.293 61.6362 575.139 47.9381 563.599 36.4001V36.4001C552.075 24.8421 538.381 15.6762 523.303 9.42932C508.224 3.18247 492.06 -0.0220229 475.739 0.00012205V0.00012205Z" fill="#BFCAE2"/>
</svg>
