<svg width="50" height="50" viewBox="0 0 50 50" fill="none" xmlns="http://www.w3.org/2000/svg">
<path d="M30.3704 10.9399H19.6304C17.3265 10.9426 15.1177 11.859 13.4886 13.4881C11.8595 15.1172 10.9431 17.326 10.9404 19.6299V30.3699C10.9431 32.6739 11.8595 34.8827 13.4886 36.5118C15.1177 38.1409 17.3265 39.0573 19.6304 39.0599H30.3704C32.6743 39.0573 34.8831 38.1409 36.5123 36.5118C38.1414 34.8827 39.0578 32.6739 39.0604 30.3699V19.6299C39.0578 17.326 38.1414 15.1172 36.5123 13.4881C34.8831 11.859 32.6743 10.9426 30.3704 10.9399ZM35.9304 30.3699C35.9304 31.8445 35.3446 33.2588 34.3019 34.3015C33.2592 35.3442 31.845 35.9299 30.3704 35.9299H19.6304C18.1558 35.9299 16.7416 35.3442 15.6989 34.3015C14.6562 33.2588 14.0704 31.8445 14.0704 30.3699V19.6299C14.0704 18.1553 14.6562 16.7411 15.6989 15.6984C16.7416 14.6557 18.1558 14.0699 19.6304 14.0699H30.3704C31.845 14.0699 33.2592 14.6557 34.3019 15.6984C35.3446 16.7411 35.9304 18.1553 35.9304 19.6299V30.3699Z" fill="white"/>
<path d="M24.9996 17.8101C23.5775 17.8101 22.1874 18.2317 21.005 19.0218C19.8226 19.8118 18.9011 20.9348 18.3569 22.2486C17.8127 23.5624 17.6703 25.008 17.9477 26.4028C18.2252 27.7975 18.9099 29.0786 19.9155 30.0842C20.921 31.0897 22.2022 31.7745 23.5969 32.0519C24.9916 32.3293 26.4373 32.1869 27.7511 31.6428C29.0649 31.0986 30.1878 30.177 30.9778 28.9946C31.7679 27.8122 32.1896 26.4221 32.1896 25.0001C32.1869 23.094 31.4286 21.2667 30.0807 19.9189C28.7329 18.5711 26.9057 17.8127 24.9996 17.8101ZM24.9996 29.3701C24.1353 29.3701 23.2904 29.1138 22.5717 28.6336C21.8531 28.1534 21.293 27.4709 20.9622 26.6724C20.6315 25.8739 20.5449 24.9952 20.7135 24.1475C20.8822 23.2998 21.2984 22.5212 21.9095 21.91C22.5207 21.2988 23.2993 20.8826 24.147 20.714C24.9947 20.5454 25.8734 20.632 26.6719 20.9627C27.4704 21.2935 28.1529 21.8536 28.6331 22.5722C29.1133 23.2909 29.3696 24.1358 29.3696 25.0001C29.3696 26.1591 28.9092 27.2706 28.0896 28.0901C27.2701 28.9097 26.1586 29.3701 24.9996 29.3701Z" fill="white"/>
<path d="M32.55 16.18C32.3083 16.18 32.0721 16.2518 31.8712 16.3863C31.6704 16.5208 31.514 16.7119 31.422 16.9354C31.3299 17.1589 31.3064 17.4048 31.3543 17.6417C31.4022 17.8786 31.5193 18.096 31.691 18.2662C31.8626 18.4364 32.0809 18.5518 32.3182 18.5977C32.5555 18.6437 32.8011 18.6181 33.0239 18.5242C33.2466 18.4303 33.4365 18.2724 33.5693 18.0705C33.7022 17.8685 33.772 17.6317 33.77 17.39C33.77 17.2302 33.7384 17.0721 33.677 16.9246C33.6156 16.7771 33.5255 16.6433 33.4121 16.5308C33.2987 16.4183 33.1641 16.3294 33.0162 16.2692C32.8682 16.209 32.7098 16.1787 32.55 16.18Z" fill="white"/>
</svg>
