<svg width="50" height="50" viewBox="0 0 50 50" fill="none" xmlns="http://www.w3.org/2000/svg">
<path d="M24.9995 13.1799C19.9395 13.1799 12.5195 16.0999 12.5195 23.2699C12.5195 31.0799 20.5795 32.9299 23.2995 33.4899C24.8695 33.8099 22.5295 37.0899 24.3995 36.8099C26.2695 36.5299 36.1495 30.5499 37.3995 24.3099C38.6495 18.0699 32.1695 13.1799 24.9995 13.1799ZM20.2995 26.2799C20.2439 26.3293 20.179 26.3671 20.1086 26.3912C20.0382 26.4152 19.9637 26.425 19.8895 26.4199H17.5195C17.4265 26.4297 17.3324 26.4186 17.2442 26.3874C17.156 26.3563 17.0758 26.3059 17.0095 26.2399C16.8905 26.0673 16.8341 25.8591 16.8495 25.6499V20.8799C16.8357 20.6786 16.8884 20.4783 16.9995 20.3099C17.0456 20.2504 17.1047 20.2024 17.1724 20.1694C17.24 20.1365 17.3143 20.1195 17.3895 20.1199C17.4667 20.1163 17.5435 20.1317 17.6133 20.1649C17.6831 20.198 17.7436 20.2478 17.7895 20.3099C17.9021 20.4777 17.9549 20.6785 17.9395 20.8799V25.3899H19.8895C19.961 25.3827 20.0332 25.3909 20.1012 25.414C20.1691 25.4372 20.2314 25.4747 20.2835 25.524C20.3357 25.5734 20.3767 25.6334 20.4036 25.7C20.4305 25.7666 20.4428 25.8382 20.4395 25.9099C20.4438 25.978 20.4336 26.0462 20.4094 26.11C20.3853 26.1738 20.3478 26.2317 20.2995 26.2799ZM22.5595 25.7599C22.5769 25.9661 22.5201 26.1718 22.3995 26.3399C22.3535 26.3994 22.2943 26.4475 22.2267 26.4804C22.1591 26.5134 22.0848 26.5303 22.0095 26.5299C21.9332 26.5308 21.8577 26.513 21.7898 26.4782C21.7218 26.4433 21.6634 26.3924 21.6195 26.3299C21.5055 26.1628 21.4525 25.9615 21.4695 25.7599V20.8799C21.4557 20.6786 21.5084 20.4783 21.6195 20.3099C21.6656 20.2504 21.7247 20.2024 21.7924 20.1694C21.86 20.1365 21.9343 20.1195 22.0095 20.1199C22.085 20.1179 22.1599 20.1342 22.2278 20.1672C22.2957 20.2003 22.3546 20.2493 22.3995 20.3099C22.5203 20.4742 22.5771 20.6768 22.5595 20.8799V25.7599ZM28.2995 25.7099C28.2995 26.2499 28.1095 26.5299 27.7095 26.5299C27.6206 26.5288 27.5325 26.5119 27.4495 26.4799C27.3657 26.4427 27.2908 26.3882 27.2295 26.3199C27.1584 26.2464 27.0948 26.166 27.0395 26.0799L26.8595 25.7899L24.8095 22.1799V25.8099C24.8249 26.0006 24.7756 26.1908 24.6695 26.3499C24.6261 26.4066 24.57 26.4524 24.5058 26.4836C24.4416 26.5148 24.3709 26.5307 24.2995 26.5299C24.2268 26.5321 24.1547 26.5159 24.09 26.4826C24.0253 26.4494 23.9701 26.4003 23.9295 26.3399C23.8276 26.1827 23.7786 25.997 23.7895 25.8099V20.9999C23.7845 20.8378 23.8047 20.6758 23.8495 20.5199C23.8956 20.3971 23.9753 20.2897 24.0795 20.2099C24.1803 20.1334 24.303 20.0914 24.4295 20.0899C24.5167 20.0873 24.603 20.108 24.6795 20.1499C24.7512 20.184 24.8157 20.2315 24.8695 20.2899L25.0295 20.5399L25.1995 20.8399L27.2995 24.4899V20.8399C27.2848 20.6507 27.3303 20.4617 27.4295 20.2999C27.4703 20.2428 27.5244 20.1966 27.5872 20.1652C27.6499 20.1338 27.7194 20.1183 27.7895 20.1199C27.8626 20.1176 27.9352 20.1327 28.0013 20.164C28.0674 20.1953 28.1251 20.2419 28.1695 20.2999C28.2687 20.4617 28.3142 20.6507 28.2995 20.8399V25.7099ZM33.2995 26.2799C33.2487 26.3303 33.1874 26.369 33.1201 26.3932C33.0527 26.4174 32.9808 26.4265 32.9095 26.4199H30.1595C30.0666 26.4276 29.9732 26.4156 29.8852 26.3846C29.7973 26.3535 29.717 26.3042 29.6495 26.2399C29.5348 26.0657 29.4819 25.8579 29.4995 25.6499V20.9999C29.4934 20.8468 29.5172 20.694 29.5695 20.5499C29.6053 20.4454 29.6807 20.3592 29.7795 20.3099C29.8968 20.2499 30.028 20.2223 30.1595 20.2299H32.8295C32.8985 20.2235 32.968 20.2318 33.0335 20.2542C33.099 20.2766 33.159 20.3127 33.2095 20.3599C33.2535 20.4066 33.2876 20.4617 33.31 20.5218C33.3323 20.5819 33.3423 20.6459 33.3395 20.7099C33.3435 20.7741 33.334 20.8384 33.3116 20.8987C33.2892 20.959 33.2545 21.0139 33.2095 21.0599C33.159 21.1072 33.099 21.1432 33.0335 21.1657C32.968 21.1881 32.8985 21.1963 32.8295 21.1899H30.5895V22.7199H32.7495C32.8839 22.7095 33.0169 22.7526 33.1195 22.8399C33.2013 22.9339 33.2442 23.0555 33.2395 23.1799C33.2458 23.3077 33.2028 23.4329 33.1195 23.5299C33.0712 23.5775 33.013 23.6139 32.9491 23.6363C32.8851 23.6588 32.817 23.6669 32.7495 23.6599H30.5895V25.4199H32.9095C32.9788 25.4122 33.049 25.42 33.1149 25.4428C33.1808 25.4655 33.2408 25.5027 33.2906 25.5515C33.3404 25.6003 33.3787 25.6596 33.4027 25.7251C33.4267 25.7905 33.4359 25.8605 33.4295 25.9299C33.431 26.0587 33.3847 26.1834 33.2995 26.2799Z" fill="white"/>
</svg>
