<svg width="31" height="30" viewBox="0 0 31 30" fill="none" xmlns="http://www.w3.org/2000/svg">
<path d="M23.3409 1.12009C22.6191 0.402676 21.6428 0 20.6252 0C19.6075 0 18.6312 0.402676 17.9094 1.12009L9.77344 9.25607C11.2133 10.695 13.1656 11.5033 15.2012 11.5033C17.2368 11.5033 19.1891 10.695 20.6289 9.25607L23.3409 6.54033C24.0558 5.81951 24.4569 4.84542 24.4569 3.83021C24.4569 2.815 24.0558 1.8409 23.3409 1.12009Z" fill="#0064FF"/>
<path d="M28.9819 17.797L20.8422 9.65723C20.1288 10.3697 19.5628 11.2157 19.1767 12.1471C18.7906 13.0784 18.5918 14.0767 18.5918 15.085C18.5918 16.0932 18.7906 17.0915 19.1767 18.0228C19.5628 18.9542 20.1288 19.8003 20.8422 20.5127L23.5542 23.2247C24.2753 23.9419 25.251 24.3445 26.268 24.3445C27.2851 24.3445 28.2608 23.9419 28.9819 23.2247C29.6991 22.5036 30.1017 21.5279 30.1017 20.5108C30.1017 19.4938 29.6991 18.5181 28.9819 17.797Z" fill="#003399"/>
<path d="M20.4187 20.7419C18.9788 19.3029 17.0265 18.4946 14.9909 18.4946C12.9553 18.4946 11.003 19.3029 9.5632 20.7419L6.85121 23.4576C6.13403 24.1788 5.73145 25.1545 5.73145 26.1715C5.73145 27.1885 6.13403 28.1642 6.85121 28.8854C7.57445 29.6009 8.55114 30.0016 9.5685 30.0002C10.5859 29.9988 11.5614 29.5954 12.2827 28.8779L20.4224 20.7344L20.4187 20.7419Z" fill="#003399"/>
<path d="M9.25949 9.45871L6.5475 6.74672C5.82637 6.02953 4.85068 5.62695 3.83363 5.62695C2.81659 5.62695 1.84089 6.02953 1.11977 6.74672C0.40258 7.46785 0 8.44354 0 9.46059C0 10.4776 0.40258 11.4533 1.11977 12.1745L9.25949 20.3142C9.97288 19.6017 10.5388 18.7557 10.925 17.8243C11.3111 16.893 11.5099 15.8947 11.5099 14.8864C11.5099 13.8782 11.3111 12.8799 10.925 11.9486C10.5388 11.0172 9.97288 10.1711 9.25949 9.45871Z" fill="#003399"/>
</svg>
