<svg width="48" height="22" viewBox="0 0 48 22" fill="none" xmlns="http://www.w3.org/2000/svg">
<path d="M7.76941 1.88416L7.14299 3.30205C6.75922 3.16463 6.36707 3.05187 5.96892 2.96446C5.61451 2.88293 5.25228 2.84017 4.88862 2.83692C4.40898 2.81236 3.93275 2.92979 3.5195 3.17451C3.36828 3.26353 3.24257 3.39004 3.15452 3.54182C3.06647 3.69361 3.01906 3.86554 3.01686 4.041C3.01315 4.18721 3.04542 4.33209 3.11082 4.4629C3.17623 4.59371 3.27278 4.70645 3.39197 4.79121C3.68425 5.00048 4.00186 5.17189 4.33722 5.30135C4.71483 5.45139 5.12369 5.60518 5.56381 5.76272C5.99483 5.9139 6.40653 6.11535 6.7904 6.36289C7.16543 6.60734 7.48595 6.92659 7.7319 7.30064C7.99766 7.73406 8.12825 8.23683 8.107 8.74479C8.11265 9.16903 8.02827 9.58964 7.85944 9.97888C7.69011 10.3525 7.43268 10.6794 7.10923 10.9316C6.73451 11.2167 6.30763 11.4257 5.85264 11.5468C5.2732 11.7032 4.67474 11.7776 4.07465 11.7681C3.69784 11.7697 3.32152 11.7408 2.94934 11.6818C2.64071 11.6329 2.33606 11.5614 2.03784 11.468C1.79275 11.3941 1.55332 11.3026 1.3214 11.1942C1.13622 11.1065 0.955907 11.0088 0.78125 10.9016L1.53146 9.38246C1.92981 9.59736 2.35311 9.7624 2.7918 9.87385C3.18435 9.98205 3.58879 10.0413 3.99588 10.0501C4.21694 10.046 4.43748 10.0272 4.65606 9.99388C4.92652 9.95574 5.19115 9.88391 5.44378 9.78007C5.68811 9.6829 5.9111 9.53891 6.10021 9.3562C6.19223 9.26545 6.26441 9.15658 6.31219 9.03648C6.35997 8.91639 6.38231 8.78768 6.37778 8.65851C6.38134 8.50324 6.3494 8.3492 6.28439 8.20814C6.21939 8.06707 6.12303 7.94272 6.00268 7.84454C5.71697 7.61055 5.3985 7.41972 5.05742 7.27814C4.68232 7.11309 4.27346 6.94805 3.83084 6.78675C3.40456 6.63511 2.99382 6.44293 2.60425 6.21285C2.24222 6.00278 1.92388 5.72519 1.66649 5.39512C1.40511 5.03536 1.27293 4.59784 1.29139 4.15353C1.29238 3.79152 1.36505 3.43328 1.5052 3.09949C1.65006 2.74618 1.87023 2.42872 2.15038 2.16924C2.46281 1.87934 2.82837 1.65261 3.22692 1.50156C3.71422 1.32232 4.23073 1.23581 4.74984 1.24649C5.10955 1.24489 5.46865 1.27628 5.82263 1.34026C6.13493 1.39244 6.4442 1.46131 6.74914 1.54657C6.98035 1.60707 7.20823 1.67969 7.43182 1.76413C7.54215 1.81009 7.65484 1.85015 7.76941 1.88416Z" fill="black"/>
<path d="M10.6914 11.6403V1.30251H13.6097C14.1361 1.29717 14.6601 1.37437 15.1626 1.53132C15.6009 1.66455 16.007 1.88673 16.3555 2.184C16.6821 2.47249 16.9387 2.8317 17.1057 3.23428C17.2923 3.67302 17.3867 4.14541 17.3832 4.62216C17.3813 5.04266 17.3194 5.46073 17.1994 5.86375C17.0776 6.26961 16.8719 6.64534 16.5955 6.96656C16.297 7.30805 15.9269 7.57956 15.5115 7.76177C14.9904 7.97891 14.429 8.08249 13.8648 8.06561H12.4206V11.6253L10.6914 11.6403ZM12.4206 6.45267H13.8085C14.1164 6.46248 14.4223 6.3995 14.7013 6.26886C14.9224 6.15801 15.1169 6.00061 15.2714 5.80749C15.4059 5.63405 15.5064 5.4368 15.5677 5.22608C15.6207 5.04818 15.6498 4.86401 15.654 4.67843C15.6496 4.49833 15.6232 4.31944 15.5752 4.14578C15.5203 3.93705 15.4233 3.74174 15.2902 3.57188C15.1398 3.38204 14.9488 3.22825 14.7313 3.12175C14.4472 2.99041 14.1363 2.92746 13.8235 2.93795H12.4206V6.45267Z" fill="black"/>
<path d="M25.3542 11.6404C25.3242 11.5766 25.2754 11.4566 25.2042 11.2878C25.1329 11.119 25.0466 10.9127 24.9416 10.6651C24.8366 10.4176 24.724 10.1475 24.6003 9.84741L24.2252 8.92091H20.6654L19.5401 11.6404H17.7959C17.8334 11.5579 17.9234 11.3478 18.066 11.0102L18.5986 9.76114C18.8137 9.261 19.05 8.70835 19.3076 8.10319C19.5651 7.49802 19.8327 6.87285 20.1103 6.22767C20.3854 5.5925 20.6517 4.96733 20.9093 4.35216C21.1668 3.73699 21.4031 3.18434 21.6182 2.69421L22.1508 1.44511C22.2934 1.10752 22.3834 0.897464 22.4209 0.814941L22.6985 1.44511C22.8448 1.77896 23.0211 2.19532 23.2349 2.69421C23.4487 3.19309 23.685 3.74074 23.9438 4.35216L24.7466 6.22767C25.0191 6.86035 25.2854 7.48552 25.5455 8.10319C25.8056 8.72085 26.0419 9.27351 26.2545 9.76114L26.7984 10.999C26.9409 11.3366 27.0309 11.5466 27.0684 11.6292L25.3542 11.6404ZM21.2543 7.45801H23.61L22.586 4.99734C22.5579 4.93526 22.5341 4.87135 22.5147 4.80603C22.4811 4.70142 22.4536 4.59496 22.4322 4.4872C22.4094 4.59499 22.3806 4.70144 22.3459 4.80603C22.3134 4.93357 22.2971 4.99734 22.2971 4.99734L21.2543 7.45801Z" fill="black"/>
<path d="M29.1797 11.6403V1.30245H32.1017C32.6281 1.29772 33.152 1.37492 33.6547 1.53126C34.0929 1.66449 34.499 1.88668 34.8475 2.18394C35.1742 2.47244 35.4307 2.83164 35.5977 3.23423C35.7843 3.67297 35.8788 4.14536 35.8753 4.62211C35.8742 4.90807 35.8454 5.19324 35.789 5.47359C35.732 5.75719 35.6413 6.03296 35.5189 6.29507C35.3961 6.56708 35.2343 6.81979 35.0388 7.04527C34.8337 7.27326 34.5946 7.46812 34.3298 7.62293L34.9375 8.59445L35.5414 9.55096L36.1754 10.5375L36.8843 11.6403H34.7987L33.5946 9.76477C33.2145 9.17461 32.8507 8.61445 32.5031 8.08431H30.9239V11.644L29.1797 11.6403ZM30.9239 6.45261H32.3118C32.6197 6.46242 32.9256 6.39945 33.2045 6.26881C33.423 6.16039 33.616 6.00699 33.7709 5.81869C33.9097 5.65312 34.012 5.46011 34.071 5.25228C34.1247 5.07068 34.1537 4.8827 34.1573 4.69338C34.1537 4.50828 34.1272 4.32434 34.0785 4.14573C34.0236 3.93699 33.9266 3.74169 33.7934 3.57182C33.6398 3.38066 33.4449 3.22677 33.2233 3.1217C32.9392 2.99036 32.6283 2.92741 32.3155 2.9379H30.9239V6.45261Z" fill="black"/>
<path d="M45.178 11.6406C44.8442 11.2355 44.5403 10.8416 44.2553 10.4665L43.4038 9.34119L42.5448 8.21588C42.2597 7.84077 41.9521 7.43191 41.6333 7.01555C41.5283 7.12808 41.427 7.23311 41.3332 7.31938L41.0369 7.59696V11.6406H39.1201V1.30273H41.0519V5.02C41.0519 5.09502 41.0519 5.17379 41.0519 5.26007C41.0519 5.34634 41.0519 5.43262 41.0219 5.51514C41.068 5.45315 41.1181 5.39425 41.1719 5.33884C41.2284 5.28045 41.2787 5.21634 41.322 5.14754C41.9634 4.53237 42.5823 3.89469 43.1712 3.23451C43.7601 2.57433 44.3791 1.92916 45.0242 1.30273H47.2223C46.5121 2.05294 45.8069 2.8094 45.1068 3.57211C44.4091 4.32231 43.7076 5.09127 43.0099 5.82272C43.4075 6.33286 43.7826 6.83175 44.1352 7.32313C44.4878 7.81452 44.8029 8.27589 45.178 8.74852L46.2358 10.1664C46.5884 10.6465 46.9598 11.1379 47.3611 11.6668L45.178 11.6406Z" fill="black"/>
<path d="M7.84082 21.0968V15.189H11.2167V15.7104H8.41848V17.961H10.9092V18.4899H8.41848V21.1156L7.84082 21.0968Z" fill="black"/>
<path d="M16.3364 21.0967C16.2277 20.8417 16.0964 20.5303 15.9613 20.1627C15.8263 19.7951 15.6575 19.4125 15.5 18.9849H13.2493C13.0881 19.4013 12.9343 19.7914 12.7842 20.1627C12.6342 20.5341 12.5066 20.8417 12.4091 21.0967H11.7939C11.8802 20.8979 11.989 20.6354 12.1278 20.3053L12.5742 19.225L13.0693 18.0059C13.2418 17.5858 13.4069 17.1769 13.5644 16.7868L14.007 15.7103C14.1421 15.3839 14.2546 15.1213 14.3446 14.915C14.4272 15.1213 14.5359 15.3839 14.6747 15.7103C14.8135 16.0366 14.9598 16.3929 15.1211 16.7868C15.2824 17.1807 15.4474 17.5858 15.62 18.0059L16.1226 19.225C16.2802 19.6001 16.4302 19.9752 16.5653 20.3053C16.7003 20.6354 16.8128 20.8979 16.8991 21.0967H16.3364ZM14.2696 16.3629C14.1571 16.6218 14.0258 16.9406 13.8945 17.3157C13.7632 17.6908 13.5869 18.0659 13.4256 18.4973H15.3012L14.8285 17.3157C14.6822 16.9406 14.5509 16.6218 14.4534 16.3629C14.4362 16.3281 14.4224 16.2916 14.4122 16.2542C14.3959 16.2061 14.3822 16.1573 14.3709 16.1079C14.3709 16.1529 14.3446 16.2016 14.3296 16.2542C14.3146 16.3067 14.2809 16.3404 14.2696 16.3629Z" fill="black"/>
<path d="M22.4657 20.6991C22.2439 20.8289 22.0087 20.9345 21.7643 21.0141C21.4342 21.1171 21.0897 21.1665 20.744 21.1604C20.3203 21.1684 19.8997 21.0866 19.5099 20.9204C19.1558 20.7712 18.8365 20.5502 18.5721 20.2714C18.3153 19.9977 18.114 19.6767 17.9795 19.3262C17.8383 18.9678 17.7658 18.5861 17.7657 18.2009C17.7634 17.7838 17.845 17.3704 18.0057 16.9855C18.1591 16.622 18.3821 16.2919 18.6622 16.014C18.9391 15.7382 19.268 15.5201 19.6299 15.3726C19.9986 15.2136 20.3951 15.1295 20.7965 15.125C20.9469 15.1244 21.0973 15.1332 21.2466 15.1513C21.3935 15.1695 21.539 15.1984 21.6817 15.2376C21.8099 15.2735 21.9352 15.3187 22.0568 15.3726C22.1628 15.416 22.2635 15.4714 22.3569 15.5376L22.2894 15.6427L22.2407 15.7327L22.1844 15.834L22.0981 15.984C21.9094 15.8656 21.7011 15.7818 21.4829 15.7364C21.262 15.6822 21.0353 15.6545 20.8078 15.6539C20.4723 15.6505 20.1399 15.7183 19.8325 15.8527C19.5366 15.9786 19.2688 16.1622 19.0448 16.3929C18.8321 16.6258 18.6631 16.8952 18.5459 17.1881C18.4182 17.4894 18.3532 17.8136 18.3546 18.1409C18.3527 18.4566 18.4113 18.7698 18.5271 19.0636C18.6397 19.3535 18.808 19.6185 19.0223 19.8438C19.2391 20.0657 19.4946 20.2463 19.7762 20.3765C20.0892 20.5144 20.4282 20.5834 20.7702 20.579C20.9248 20.5801 21.0792 20.5676 21.2316 20.5415C21.3725 20.5187 21.5116 20.4861 21.648 20.444C21.7618 20.407 21.8733 20.3632 21.9818 20.3127C22.0637 20.2795 22.1407 20.2354 22.2106 20.1814L22.4657 20.6991Z" fill="black"/>
<path d="M27.2971 15.189V15.7254H25.7255V21.0968H25.1553V15.7254H23.5986V15.189H27.2971Z" fill="black"/>
<path d="M28.3546 18.1519C28.3517 17.7497 28.4322 17.3512 28.5909 16.9816C28.8976 16.255 29.4726 15.6746 30.1963 15.3612C30.5675 15.2053 30.966 15.125 31.3685 15.125C31.7711 15.125 32.1696 15.2053 32.5407 15.3612C33.2664 15.6743 33.8439 16.2545 34.1537 16.9816C34.3119 17.3515 34.3936 17.7496 34.3936 18.1519C34.3936 18.5543 34.3119 18.9524 34.1537 19.3223C33.8477 20.0484 33.2683 20.6251 32.5407 20.9277C31.79 21.2376 30.9471 21.2376 30.1963 20.9277C29.4716 20.6235 28.8951 20.047 28.5909 19.3223C28.4329 18.9524 28.3525 18.5541 28.3546 18.1519ZM28.9172 18.1519C28.9148 18.4833 28.9812 18.8116 29.1123 19.1159C29.2365 19.408 29.4147 19.6739 29.6374 19.8999C29.8592 20.1253 30.123 20.3049 30.4139 20.4288C30.7157 20.5575 31.0404 20.6238 31.3685 20.6238C31.6966 20.6238 32.0213 20.5575 32.3232 20.4288C32.7693 20.2387 33.1495 19.9213 33.4163 19.5164C33.6832 19.1114 33.8248 18.6369 33.8236 18.1519C33.8263 17.8205 33.7599 17.4922 33.6285 17.1879C33.5049 16.8925 33.3253 16.6237 33.0996 16.3965C32.8772 16.1738 32.6134 15.9967 32.3232 15.8751C32.0214 15.7441 31.6956 15.6776 31.3666 15.68C31.0376 15.6769 30.7116 15.7433 30.4101 15.8751C30.1201 16.0021 29.8566 16.1828 29.6337 16.4077C29.4091 16.6351 29.2308 16.9039 29.1085 17.1992C28.9816 17.5007 28.9165 17.8247 28.9172 18.1519Z" fill="black"/>
<path d="M36.1758 21.0969V15.189H37.6087C37.8526 15.1878 38.0954 15.2232 38.3289 15.294C38.5535 15.3574 38.7628 15.4659 38.944 15.6129C39.1252 15.7581 39.2724 15.9412 39.3754 16.1493C39.4872 16.3899 39.5424 16.6529 39.5367 16.9182C39.5376 17.2455 39.4604 17.5682 39.3116 17.8597C39.1498 18.1703 38.8844 18.4145 38.5614 18.5499L38.7602 18.88C38.8428 19.015 38.9328 19.1688 39.0341 19.3301L39.3416 19.8403C39.4504 20.0166 39.5555 20.1816 39.653 20.3429L39.9268 20.7818L40.1256 21.0969H39.4392L39.2629 20.823L39.0228 20.4479L38.7415 19.9941C38.644 19.8328 38.5464 19.679 38.4527 19.5214L38.1863 19.0826L37.965 18.73C37.9076 18.7357 37.8498 18.7357 37.7925 18.73H36.7234V21.0969H36.1758ZM36.7384 18.1936H37.6162C37.845 18.2016 38.0725 18.1553 38.2801 18.0585C38.4423 17.9834 38.5848 17.8717 38.6965 17.7322C38.7945 17.6103 38.8672 17.47 38.9103 17.3196C38.9496 17.1893 38.9711 17.0543 38.974 16.9182C38.9741 16.7656 38.9439 16.6144 38.8853 16.4734C38.8267 16.3325 38.7409 16.2044 38.6327 16.0967C38.5142 15.9761 38.3708 15.8827 38.2126 15.8229C38.0251 15.7494 37.825 15.7137 37.6237 15.7179H36.7384V18.1936Z" fill="black"/>
</svg>
